<?xml version="1.0" encoding="utf-8"?>
<!-- Uploaded to: SVG Repo, www.svgrepo.com, Generator: SVG Repo Mixer Tools -->
<svg width="800px" height="800px" viewBox="0 -2.5 70 70" xmlns="http://www.w3.org/2000/svg">
  <g id="Group_77" data-name="Group 77" transform="translate(-35 -733)">
    <path id="Path_97" data-name="Path 97" d="M85,745,66,756,47,745,36,786l19,11,19-11,19,11,11-41Z" fill="#99ecff" stroke="#333" stroke-linecap="round" stroke-linejoin="round" stroke-width="2"/>
    <line id="Line_115" data-name="Line 115" y1="41.5" x2="10.833" transform="translate(55 755.5)" fill="none" stroke="#333" stroke-miterlimit="10" stroke-width="2" stroke-dasharray="3"/>
    <line id="Line_116" data-name="Line 116" y1="41.5" x2="10.833" transform="translate(74.002 745.499)" fill="none" stroke="#333" stroke-miterlimit="10" stroke-width="2" stroke-dasharray="3"/>
    <path id="Path_98" data-name="Path 98" d="M92,734a11,11,0,0,0-11,11c0,6.075,11,23,11,23s11-16.925,11-23A11,11,0,0,0,92,734Zm0,14a3,3,0,1,1,3-3A3,3,0,0,1,92,748Z" fill="#fff1b6" stroke="#333" stroke-linecap="round" stroke-linejoin="round" stroke-width="2"/>
  </g>
</svg>